<svg xmlns="http://www.w3.org/2000/svg" xmlns:wrs="http://www.wiris.com/xml/cvs-extension" height="23" width="77" wrs:baseline="19"><!--MathML: <math xmlns="http://www.w3.org/1998/Math/MathML"><mroot><mrow><mi>q</mi><mi>&#x1B0;</mi><mi>e</mi><mi>q</mi></mrow><mn>3244</mn></mroot></math>--><defs><style type="text/css"/></defs><line stroke="#000000" stroke-linecap="square" stroke-width="1" x1="0.5" x2="1.5" y1="13.5" y2="13.5"/><line stroke="#000000" stroke-linecap="square" stroke-width="1" x1="2.5" x2="3.5" y1="13.5" y2="13.5"/><line stroke="#000000" stroke-linecap="square" stroke-width="1" x1="4.5" x2="5.5" y1="13.5" y2="13.5"/><line stroke="#000000" stroke-linecap="square" stroke-width="1" x1="6.5" x2="7.5" y1="13.5" y2="13.5"/><line stroke="#000000" stroke-linecap="square" stroke-width="1" x1="8.5" x2="9.5" y1="13.5" y2="13.5"/><line stroke="#000000" stroke-linecap="square" stroke-width="1" x1="10.5" x2="11.5" y1="13.5" y2="13.5"/><line stroke="#000000" stroke-linecap="square" stroke-width="1" x1="12.5" x2="13.5" y1="13.5" y2="13.5"/><line stroke="#000000" stroke-linecap="square" stroke-width="1" x1="14.5" x2="15.5" y1="13.5" y2="13.5"/><line stroke="#000000" stroke-linecap="square" stroke-width="1" x1="16.5" x2="17.5" y1="13.5" y2="13.5"/><line stroke="#000000" stroke-linecap="square" stroke-width="1" x1="18.5" x2="19.5" y1="13.5" y2="13.5"/><line stroke="#000000" stroke-linecap="square" stroke-width="1" x1="20.5" x2="21.5" y1="13.5" y2="13.5"/><line stroke="#000000" stroke-linecap="square" stroke-width="1" x1="22.5" x2="23.5" y1="13.5" y2="13.5"/><polyline fill="none" points="12,-16 11,-16 5,0 2,-6" stroke="#000000" stroke-linecap="square" stroke-width="1" transform="translate(21.5,20.5)"/><polyline fill="none" points="5,0 2,-6" stroke="#000000" stroke-linecap="square" stroke-width="1" transform="translate(21.5,20.5)"/><line stroke="#000000" stroke-linecap="square" stroke-width="1" x1="33.5" x2="75.5" y1="4.5" y2="4.5"/><text font-family="Arial" font-size="12" text-anchor="middle" x="13.5" y="11">3244</text><text font-family="Arial" font-size="16" font-style="italic" text-anchor="middle" x="39.5" y="19">q</text><text font-family="Arial" font-size="16" font-style="italic" text-anchor="middle" x="49.5" y="19">&#x1B0;</text><text font-family="Arial" font-size="16" font-style="italic" text-anchor="middle" x="59.5" y="19">e</text><text font-family="Arial" font-size="16" font-style="italic" text-anchor="middle" x="68.5" y="19">q</text></svg>